<svg xmlns="http://www.w3.org/2000/svg" width="748" height="563.713" viewBox="0 0 748 563.713"><defs><style>.a,.d,.l{fill:#fff;}.b{fill:#686c78;}.b,.c{font-size:18px;font-family:-apple-system, -apple-system, BlinkMacSystemFont, 'Segoe UI', Roboto, Oxygen, Ubuntu, Cantarell, 'Open Sans', 'Helvetica Neue', sans-serif;font-weight:500;}.c{fill:#0c6aba;}.d,.i{stroke:#ddd;}.e,.j{fill:#3d464e;}.e,.j,.l{font-size:16px;}.e{font-family:-apple-system, -apple-system, BlinkMacSystemFont, 'Segoe UI', Roboto, Oxygen, Ubuntu, Cantarell, 'Open Sans', 'Helvetica Neue', sans-serif;}.f,.g,.h,.i,.m,.p{fill:none;}.f{stroke:#8e929d;}.f,.g,.h{stroke-linecap:round;stroke-linejoin:round;}.g,.h{stroke:#3d464e;}.g,.m{stroke-width:3px;}.h{stroke-width:2px;}.j,.l{font-family:-apple-system, -apple-system, BlinkMacSystemFont, 'Segoe UI', Roboto, Oxygen, Ubuntu, Cantarell, 'Open Sans', 'Helvetica Neue', sans-serif;font-weight:600;}.k{fill:#0f8bf2;}.m{stroke:#0f8bf2;}.n,.o{stroke:none;}.o{fill:#ddd;}</style></defs><g transform="translate(2410 1574.016)"><g class="a" transform="translate(-2410 -1574.016)"><path class="n" d="M 742 563.213134765625 L 6 563.213134765625 C 2.967272758483887 563.213134765625 0.5 560.432861328125 0.5 557.0155029296875 L 0.5 6.697567462921143 C 0.5 3.280203819274902 2.967272758483887 0.5000219345092773 6 0.5000219345092773 L 376.4201049804688 0.5000219345092773 L 742 0.5000219345092773 C 745.03271484375 0.5000219345092773 747.5 3.280203819274902 747.5 6.697567462921143 L 747.5 557.0155029296875 C 747.5 560.432861328125 745.03271484375 563.213134765625 742 563.213134765625 Z"/><path class="o" d="M 6 0.99993896484375 C 3.24298095703125 0.99993896484375 1 3.55584716796875 1 6.69757080078125 L 1 557.0154418945312 C 1 560.1571655273438 3.24298095703125 562.7131958007812 6 562.7131958007812 L 742 562.7131958007812 C 744.7570190429688 562.7131958007812 747 560.1571655273438 747 557.0154418945312 L 747 6.69757080078125 C 747 3.55584716796875 744.7570190429688 0.99993896484375 742 0.99993896484375 L 6 0.99993896484375 M 6 -6.103515625e-05 L 742 -6.103515625e-05 C 745.313720703125 -6.103515625e-05 748 2.99859619140625 748 6.69757080078125 L 748 557.0154418945312 C 748 560.7145385742188 745.313720703125 563.7131958007812 742 563.7131958007812 L 6 563.7131958007812 C 2.686279296875 563.7131958007812 0 560.7145385742188 0 557.0154418945312 L 0 6.69757080078125 C 0 2.99859619140625 2.686279296875 -6.103515625e-05 6 -6.103515625e-05 Z"/></g><text class="b" transform="translate(-2148 -1509)"><tspan x="0" y="0">Install from backup</tspan></text><text class="c" transform="translate(-2365 -1509)"><tspan x="0" y="0">Create new website</tspan></text><g transform="translate(-2370 -1291.3)"><g class="d" transform="translate(0 30.3)"><rect class="n" width="675" height="46" rx="2"/><rect class="p" x="0.5" y="0.5" width="674" height="45" rx="1.5"/></g><text class="e" transform="translate(0 15.3)"><tspan x="0" y="0">Website name:</tspan></text></g><g transform="translate(-2370 -1193.723)"><g class="d" transform="translate(0 29.723)"><rect class="n" width="675" height="46" rx="2"/><rect class="p" x="0.5" y="0.5" width="674" height="45" rx="1.5"/></g><text class="e" transform="translate(0 14.723)"><tspan x="0" y="0">Author name:</tspan><tspan x="0" y="19"></tspan></text></g><g transform="translate(-2365.227 -1435.984)"><path class="f" d="M15.5,9.075H12.8L10.775,15.15,6.725,3,4.7,9.075H2" transform="translate(652.773 29.5)"/><g transform="translate(148.248 30.924)"><ellipse class="f" cx="2.179" cy="2.179" rx="2.179" ry="2.179" transform="translate(5.085 0)"/><line class="f" y1="10.17" transform="translate(7.264 4.358)"/><path class="f" d="M4.179,12H2a7.264,7.264,0,1,0,14.528,0H14.349" transform="translate(-2 -4.736)"/></g><g transform="translate(183.288 2)"><path class="f" d="M16.075,8v9.443H3V8" transform="translate(-1.547 -4.368)"/><rect class="f" width="15.981" height="3.632" transform="translate(0 0)"/><line class="f" x2="2.906" transform="translate(6.538 6.538)"/></g><g transform="translate(150.793 1)"><ellipse class="f" cx="5.085" cy="5.085" rx="5.085" ry="5.085" transform="translate(0 0)"/><path class="f" d="M7.879,13.887,7,20.5l3.632-2.179L14.264,20.5l-.879-6.625" transform="translate(-5.547 -4.524)"/></g><g transform="translate(509.234 33.472)"><path class="f" d="M3.906,14.717H2.453A1.453,1.453,0,0,1,1,13.264V7.453A1.453,1.453,0,0,1,2.453,6H4.77m6.4,0h1.453a1.453,1.453,0,0,1,1.453,1.453v5.811a1.453,1.453,0,0,1-1.453,1.453H10.305" transform="translate(-1 -6)"/><line class="f" y1="1.453" transform="translate(15.981 3.632)"/><path class="f" d="M9.906,6,7,10.358h4.358L8.453,14.717" transform="translate(-2.642 -6)"/></g><g transform="translate(106.698 59.707)"><path class="f" d="M13.9,6.358a4.358,4.358,0,1,0-8.717,0C5.179,11.443,3,12.9,3,12.9H16.075S13.9,11.443,13.9,6.358" transform="translate(-3 -2)"/><path class="f" d="M12.783,21a1.453,1.453,0,0,1-2.513,0" transform="translate(-4.989 -7.198)"/></g><g transform="translate(147.969 61.622)"><rect class="f" width="14.528" height="10.17" rx="2" transform="translate(0 2.906)"/><path class="f" d="M13.811,16.075V4.453A1.453,1.453,0,0,0,12.358,3H9.453A1.453,1.453,0,0,0,8,4.453V16.075" transform="translate(-3.642 -3)"/></g><g transform="translate(552.243 3)"><path class="f" d="M16.981,14.623a1.453,1.453,0,0,1-1.453,1.453H2.453A1.453,1.453,0,0,1,1,14.623V6.632A1.453,1.453,0,0,1,2.453,5.179H5.358L6.811,3H11.17l1.453,2.179h2.906a1.453,1.453,0,0,1,1.453,1.453Z" transform="translate(-1 -3)"/><ellipse class="f" cx="2.906" cy="2.906" rx="2.906" ry="2.906" transform="translate(5.085 4.358)"/></g><g transform="translate(186.865 60.707)"><path class="f" d="M12.717,4H14.17a1.453,1.453,0,0,1,1.453,1.453v10.17a1.453,1.453,0,0,1-1.453,1.453H5.453A1.453,1.453,0,0,1,4,15.623V5.453A1.453,1.453,0,0,1,5.453,4H6.906" transform="translate(-4 -2.547)"/><rect class="f" width="5.811" height="2.906" rx="1" transform="translate(2.906 0)"/></g><g transform="translate(219.745 1)"><path class="f" d="M14.8,13.318a3.632,3.632,0,0,0-1.453-6.959h-.915a5.811,5.811,0,1,0-9.254,5.993" transform="translate(-0.994 -2)"/><line class="f" x2="0.007" transform="translate(5.09 10.17)"/><line class="f" x2="0.007" transform="translate(5.09 13.075)"/><line class="f" x2="0.007" transform="translate(7.995 11.622)"/><line class="f" x2="0.007" transform="translate(7.995 14.528)"/><line class="f" x2="0.007" transform="translate(10.901 10.17)"/><line class="f" x2="0.007" transform="translate(10.901 13.075)"/></g><g transform="translate(0 4)"><path class="g" d="M18,8h2.191a8.547,8.547,0,0,1,8.765,8.311,8.547,8.547,0,0,1-8.765,8.311H18" transform="translate(17.061 6.543)"/><path class="g" d="M2,8H37.061V26.7A8.547,8.547,0,0,1,28.3,35.009H10.765A8.547,8.547,0,0,1,2,26.7Z" transform="translate(-2 6.543)"/><line class="g" y2="6.233" transform="translate(8.765 0)"/><line class="g" y2="6.233" transform="translate(17.531 0)"/><line class="g" y2="6.233" transform="translate(26.296 0)"/></g><path class="f" d="M13.9,3a2.179,2.179,0,0,0-2.179,2.179V13.9A2.179,2.179,0,1,0,13.9,11.717H5.179A2.179,2.179,0,1,0,7.358,13.9V5.179A2.179,2.179,0,1,0,5.179,7.358H13.9A2.179,2.179,0,0,0,13.9,3Z" transform="translate(218.702 57.707)"/><g transform="translate(402.136 31.292)"><ellipse class="f" cx="7.264" cy="7.264" rx="7.264" ry="7.264" transform="translate(0 0)"/><path class="f" d="M13.92,7.76l-1.54,4.62L7.76,13.92,9.3,9.3Z" transform="translate(-3.576 -3.576)"/></g><g transform="translate(256.002 59.802)"><rect class="f" width="11.623" height="11.623" rx="2" transform="translate(2.179 2.179)"/><rect class="f" width="4.358" height="4.358" transform="translate(5.811 5.811)"/><line class="f" y2="2.179" transform="translate(5.811 0)"/><line class="f" y2="2.179" transform="translate(10.17 0)"/><line class="f" y2="2.179" transform="translate(5.811 13.802)"/><line class="f" y2="2.179" transform="translate(10.17 13.802)"/><line class="f" x2="2.179" transform="translate(13.802 5.811)"/><line class="f" x2="2.179" transform="translate(13.802 9.443)"/><line class="f" x2="2.179" transform="translate(0 5.811)"/><line class="f" x2="2.179" transform="translate(0 9.443)"/></g><g transform="translate(620.545 3)"><rect class="f" width="15.981" height="11.623" rx="2" transform="translate(0 0)"/><line class="f" x2="15.981" transform="translate(0 4.358)"/></g><g transform="translate(474.073 31.113)"><ellipse class="f" cx="7.264" cy="7.264" rx="7.264" ry="7.264" transform="translate(0 0)"/><line class="f" x1="2.906" transform="translate(11.623 7.264)"/><line class="f" x1="2.906" transform="translate(0 7.264)"/><line class="f" y1="2.906" transform="translate(7.264 0)"/><line class="f" y1="2.906" transform="translate(7.264 11.623)"/></g><g transform="translate(474.563 2)"><ellipse class="f" cx="6.538" cy="2.179" rx="6.538" ry="2.179" transform="translate(0 0)"/><path class="f" d="M16.075,12c0,1.206-2.906,2.179-6.538,2.179S3,13.206,3,12" transform="translate(-3 -4.736)"/><path class="f" d="M3,5V15.17c0,1.206,2.906,2.179,6.538,2.179s6.538-.973,6.538-2.179V5" transform="translate(-3 -2.821)"/></g><g transform="translate(332.545 60.254)"><line class="f" y2="15.981" transform="translate(4.358 0)"/><path class="f" d="M13.991,5H8.542a2.542,2.542,0,0,0,0,5.085h3.632a2.542,2.542,0,1,1,0,5.085H6" transform="translate(-6 -2.094)"/></g><path class="f" d="M9.813,2.69,13.924,6.8a5.811,5.811,0,1,1-8.216,0Z" transform="translate(290.257 58.291)"/><path class="f" d="M12.9,2.773A2.055,2.055,0,0,1,15.8,5.679L6,15.486l-4,1.09,1.09-4Z" transform="translate(363.511 58.63)"/><g transform="translate(401.339 61.254)"><path class="f" d="M1,9.811S3.906,4,8.991,4s7.991,5.811,7.991,5.811-2.906,5.811-7.991,5.811S1,9.811,1,9.811Z" transform="translate(-1 -4)"/><ellipse class="f" cx="2.179" cy="2.179" rx="2.179" ry="2.179" transform="translate(5.811 3.632)"/></g><g transform="translate(438.986 59.622)"><path class="f" d="M16.071,9.436A4.361,4.361,0,1,0,9.9,3.269L5,8.172v6.174h6.174Z" transform="translate(-2.821 -1.992)"/><line class="f" x1="10.17" y2="10.17" transform="translate(0 4.365)"/><line class="f" x1="6.174" transform="translate(5.085 9.449)"/></g><g transform="translate(476.088 60.17)"><path class="f" d="M11.264,2H5.453A1.453,1.453,0,0,0,4,3.453V15.075a1.453,1.453,0,0,0,1.453,1.453H14.17a1.453,1.453,0,0,0,1.453-1.453V6.358Z" transform="translate(-4 -2)"/><path class="f" d="M14,2V6.358h4.358" transform="translate(-6.736 -2)"/><line class="f" x1="5.811" transform="translate(2.906 7.991)"/><line class="f" x1="5.811" transform="translate(2.906 10.896)"/><path class="f" d="M9.453,9H8" transform="translate(-5.094 -3.915)"/></g><g transform="translate(221.341 30.924)"><rect class="f" width="14.528" height="14.528" rx="2.18" transform="translate(0 0)"/><line class="f" y2="14.528" transform="translate(3.632 0)"/><line class="f" y2="14.528" transform="translate(10.896 0)"/><line class="f" x2="14.528" transform="translate(0 7.264)"/><line class="f" x2="3.632" transform="translate(0 3.632)"/><line class="f" x2="3.632" transform="translate(0 10.896)"/><line class="f" x2="3.632" transform="translate(10.896 10.896)"/><line class="f" x2="3.632" transform="translate(10.896 3.632)"/></g><g transform="translate(511.953 60.622)"><path class="f" d="M4,11.443s.726-.726,2.906-.726,3.632,1.453,5.811,1.453,2.906-.726,2.906-.726V2.726s-.726.726-2.906.726S9.085,2,6.906,2,4,2.726,4,2.726Z" transform="translate(-4 -2)"/><line class="f" y1="5.085" transform="translate(0 9.443)"/></g><g transform="translate(402.345 2)"><path class="f" d="M3,13.9V9.538a6.538,6.538,0,1,1,13.075,0V13.9" transform="translate(-3 -3)"/><path class="f" d="M16.075,17.632a1.453,1.453,0,0,1-1.453,1.453H13.9a1.453,1.453,0,0,1-1.453-1.453V15.453A1.453,1.453,0,0,1,13.9,14h2.179ZM3,17.632a1.453,1.453,0,0,0,1.453,1.453h.726a1.453,1.453,0,0,0,1.453-1.453V15.453A1.453,1.453,0,0,0,5.179,14H3Z" transform="translate(-3 -6.009)"/></g><path class="f" d="M15.562,4.169a4,4,0,0,0-5.651,0l-.77.77-.77-.77A4,4,0,0,0,2.719,9.821l.77.77,5.651,5.651,5.651-5.651.77-.77a4,4,0,0,0,0-5.651Z" transform="translate(290.989 28.653)"/><g transform="translate(553.667 59.99)"><path class="f" d="M3,7.085,9.538,2l6.538,5.085v7.991a1.453,1.453,0,0,1-1.453,1.453H4.453A1.453,1.453,0,0,1,3,15.075Z" transform="translate(-3 -2)"/><path class="f" d="M9,19.264V12h4.358v7.264" transform="translate(-4.642 -4.736)"/></g><g transform="translate(402.016 89.32)"><path class="f" d="M9.264,2,2,5.632,9.264,9.264l7.264-3.632Z" transform="translate(-2 -2)"/><path class="f" d="M2,17l7.264,3.632L16.528,17" transform="translate(-2 -6.104)"/><path class="f" d="M2,12l7.264,3.632L16.528,12" transform="translate(-2 -4.736)"/></g><g transform="translate(438.269 2)"><ellipse class="f" cx="7.264" cy="7.264" rx="7.264" ry="7.264" transform="translate(0 0)"/><line class="f" x2="5.811" transform="translate(4.358 9.443)"/><line class="f" x2="0.007" transform="translate(5.085 5.085)"/><line class="f" x2="0.007" transform="translate(9.443 5.085)"/></g><g transform="translate(367.262)"><path class="f" d="M11.179,1A2.179,2.179,0,0,0,9,3.179V8.991a2.179,2.179,0,1,0,4.358,0V3.179A2.179,2.179,0,0,0,11.179,1Z" transform="translate(-6.094 -1)"/><path class="f" d="M15.17,10v1.453a5.085,5.085,0,0,1-10.17,0V10" transform="translate(-5 -3.462)"/><line class="f" y2="2.906" transform="translate(5.085 13.075)"/><line class="f" x2="5.811" transform="translate(2.179 15.981)"/></g><g transform="translate(621.497 31.839)"><rect class="f" width="14.528" height="10.17" rx="2" transform="translate(0 0)"/><line class="f" x2="5.811" transform="translate(4.358 13.075)"/><line class="f" y2="2.906" transform="translate(7.264 10.17)"/></g><path class="f" d="M16.086,10.112A6.538,6.538,0,1,1,8.974,3a5.085,5.085,0,0,0,7.112,7.112Z" transform="translate(618.931 58.17)"/><g transform="translate(330.437 2)"><path class="f" d="M9,13.9V4.453L17.717,3v9.443" transform="translate(-4.642 -3)"/><ellipse class="f" cx="2.179" cy="2.179" rx="2.179" ry="2.179" transform="translate(0 8.717)"/><ellipse class="f" cx="2.179" cy="2.179" rx="2.179" ry="2.179" transform="translate(8.717 7.264)"/></g><path class="f" d="M16.122,8.407,9.446,15.082A4.361,4.361,0,1,1,3.279,8.915L9.955,2.239a2.907,2.907,0,1,1,4.111,4.111L7.383,13.027a1.454,1.454,0,1,1-2.056-2.056l6.167-6.16" transform="translate(291.446 -0.888)"/><g transform="translate(105.971 30.83)"><path class="f" d="M12,17.085,17.085,12l2.179,2.179-5.085,5.085Z" transform="translate(-4.736 -4.736)"/><path class="f" d="M13.623,9.991l-1.09-5.448L2,2,4.542,12.533l5.448,1.09Z" transform="translate(-2 -2)"/><path class="f" d="M2,2,7.511,7.511" transform="translate(-2 -2)"/><ellipse class="f" cx="1.453" cy="1.453" rx="1.453" ry="1.453" transform="translate(5.085 5.085)"/></g><g transform="translate(656.752 62.443)"><line class="f" x1="10.17" y2="10.17" transform="translate(0.726 0.726)"/><ellipse class="f" cx="1.816" cy="1.816" rx="1.816" ry="1.816" transform="translate(0 0)"/><ellipse class="f" cx="1.816" cy="1.816" rx="1.816" ry="1.816" transform="translate(7.991 7.991)"/></g><g transform="translate(106.065 89.584)"><path class="f" d="M14.156,6.64a6.538,6.538,0,1,1-9.247,0" transform="translate(-2.995 -3.269)"/><line class="f" y2="7.264" transform="translate(6.541 0)"/></g><g transform="translate(587.12 2)"><path class="f" d="M6,7.085V2h8.717V7.085" transform="translate(-3.094 -2)"/><path class="f" d="M4.906,15.538H3.453A1.453,1.453,0,0,1,2,14.085V10.453A1.453,1.453,0,0,1,3.453,9H15.075a1.453,1.453,0,0,1,1.453,1.453v3.632a1.453,1.453,0,0,1-1.453,1.453H13.623" transform="translate(-2 -3.915)"/><rect class="f" width="8.717" height="5.811" transform="translate(2.906 8.717)"/></g><g transform="translate(365.574 91.5)"><ellipse class="f" cx="1.453" cy="1.453" rx="1.453" ry="1.453" transform="translate(5.81 3.683)"/><path class="f" d="M12.345,6.986a4.358,4.358,0,0,1,0,6.167m-6.16-.007a4.358,4.358,0,0,1,0-6.167M14.4,4.93a7.264,7.264,0,0,1,0,10.271m-10.271,0a7.264,7.264,0,0,1,0-10.271" transform="translate(-2.002 -4.93)"/></g><g transform="translate(184.855 31.377)"><ellipse class="f" cx="2.179" cy="2.179" rx="2.179" ry="2.179" transform="translate(0 0)"/><ellipse class="f" cx="2.179" cy="2.179" rx="2.179" ry="2.179" transform="translate(0 8.717)"/><line class="f" x1="8.63" y2="8.63" transform="translate(3.719 0.726)"/><line class="f" x2="4.017" y2="4.01" transform="translate(8.332 8.339)"/><line class="f" x2="2.818" y2="2.818" transform="translate(3.719 3.719)"/></g><g transform="translate(365.983 30.292)"><line class="f" x1="7.991" y2="7.991" transform="translate(6.538 0)"/><path class="f" d="M16.528,2,11.443,16.528,8.538,9.991,2,7.085Z" transform="translate(-2 -2)"/></g><path class="f" d="M9.811,16.528s5.811-2.906,5.811-7.264V4.179L9.811,2,4,4.179V9.264C4,13.623,9.811,16.528,9.811,16.528Z" transform="translate(146.044 87.584)"/><g transform="translate(257.562 1)"><path class="f" d="M5.179,2,3,4.906v10.17a1.453,1.453,0,0,0,1.453,1.453h10.17a1.453,1.453,0,0,0,1.453-1.453V4.906L13.9,2Z" transform="translate(-3 -2)"/><line class="f" x2="13.075" transform="translate(0 2.906)"/><path class="f" d="M13.811,10A2.906,2.906,0,0,1,8,10" transform="translate(-4.368 -4.189)"/></g><g transform="translate(186.643 89.679)"><rect class="f" width="10.17" height="14.528" rx="2" transform="translate(0 0)"/><line class="f" x2="0.007" transform="translate(5.085 11.623)"/></g><g transform="translate(222.721 89.32)"><rect class="f" width="11.623" height="14.528" rx="2" transform="translate(0 0)"/><ellipse class="f" cx="2.906" cy="2.906" rx="2.906" ry="2.906" transform="translate(2.906 5.811)"/><line class="f" x2="0.007" transform="translate(5.811 2.906)"/></g><path class="f" d="M9.264,2l2.245,4.547,5.02.734L12.9,10.819l.857,5L9.264,13.456,4.775,15.816l.857-5L2,7.281l5.02-.734Z" transform="translate(550.818 29.113)"/><path class="f" d="M12.085,11V2.816a1.816,1.816,0,1,0-3.632,0V11a3.269,3.269,0,1,0,3.632,0Z" transform="translate(253.975 29.924)"/><path class="f" d="M11.5,5.123a.726.726,0,0,0,0,1.017L12.661,7.3a.726.726,0,0,0,1.017,0l2.739-2.739a4.358,4.358,0,0,1-5.768,5.768l-5.02,5.02A1.541,1.541,0,0,1,3.45,13.171l5.02-5.02a4.358,4.358,0,0,1,5.768-5.768L11.506,5.115Z" transform="translate(653.423 -0.496)"/><g transform="translate(509.782 2)"><rect class="f" width="10.896" height="9.443" transform="translate(0 0)"/><path class="f" d="M16,8h2.906l2.179,2.179v3.632H16Z" transform="translate(-5.104 -4.368)"/><ellipse class="f" cx="1.816" cy="1.816" rx="1.816" ry="1.816" transform="translate(1.453 9.443)"/><ellipse class="f" cx="1.816" cy="1.816" rx="1.816" ry="1.816" transform="translate(10.896 9.443)"/></g><g transform="translate(292.78 89.415)"><rect class="f" width="14.528" height="10.896" rx="2" transform="translate(0 3.632)"/><path class="f" d="M14.264,2,10.632,5.632,7,2" transform="translate(-3.368 -2)"/></g><path class="f" d="M16.981,9.264A8.027,8.027,0,0,0,1,9.264Zm-3.632,5.085a2.179,2.179,0,1,1-4.358,0V9.264" transform="translate(327.207 87.141)"/><g transform="translate(330.032 30.929)"><path class="f" d="M4,18.816A1.816,1.816,0,0,1,5.816,17h9.807" transform="translate(-4 -6.104)"/><path class="f" d="M5.816,2h9.807V16.528H5.816A1.816,1.816,0,0,1,4,14.712V3.816A1.816,1.816,0,0,1,5.816,2Z" transform="translate(-4 -2)"/></g><g transform="translate(438.105 31.024)"><path class="f" d="M15.954,12.317a7.264,7.264,0,1,1-9.6-9.487" transform="translate(-1.999 -2.227)"/><path class="f" d="M19.264,9.264A7.264,7.264,0,0,0,12,2V9.264Z" transform="translate(-4.735 -2)"/></g><g transform="translate(589.273 30.476)"><ellipse class="f" cx="5" cy="5.5" rx="5" ry="5.5" transform="translate(0 2.524)"/><path class="f" d="M12,9v2.179l1.09,1.09" transform="translate(-7.035 -3.189)"/><path class="f" d="M14.039,12.877l-.254,2.782a1.453,1.453,0,0,1-1.453,1.322H9.187a1.453,1.453,0,0,1-1.453-1.322L7.48,12.877M7.487,5.1l.254-2.782A1.453,1.453,0,0,1,9.187,1h3.16A1.453,1.453,0,0,1,13.8,2.322L14.054,5.1" transform="translate(-5.799 -1)"/></g><g transform="translate(587.273 61)"><rect class="f" width="13" height="13" rx="2"/><ellipse class="f" cx="1" cy="1.5" rx="1" ry="1.5" transform="translate(4 3)"/><path class="f" d="M16.623,13.632,12.991,10,5,17.991" transform="translate(-4.007 -5.562)"/></g><g transform="translate(256.113 89)"><ellipse class="f" cx="3.5" cy="4" rx="3.5" ry="4" transform="translate(5 4)"/><line class="f" y2="1" transform="translate(9)"/><line class="f" y2="1" transform="translate(9 14)"/><line class="f" x2="1.032" y2="1.032" transform="translate(2.767 2.023)"/><line class="f" x2="1.032" y2="1.032" transform="translate(13.039 12.294)"/><line class="f" x2="2" transform="translate(0 8)"/><line class="f" x2="1" transform="translate(15 8)"/><line class="f" y1="1.032" x2="1.032" transform="translate(2.767 12.294)"/><line class="f" y1="1.032" x2="1.032" transform="translate(13.039 2.023)"/></g><g transform="translate(107.582 0)"><path class="h" d="M18,8h1a4.018,4.018,0,1,1,0,8.036H18" transform="translate(-1.928 -0.969)"/><path class="h" d="M2,8H18.072v9.04a4.018,4.018,0,0,1-4.018,4.018H6.018A4.018,4.018,0,0,1,2,17.04Z" transform="translate(-2 -0.969)"/><line class="h" y2="3.013" transform="translate(4.018)"/><line class="h" y2="3.013" transform="translate(8.036)"/><line class="h" y2="3.013" transform="translate(12.054)"/></g></g><g transform="translate(-2036.619 -1069.302)"><g class="i"><path class="n" d="M0,0H374.619a0,0,0,0,1,0,0V52.891a6,6,0,0,1-6,6H0a0,0,0,0,1,0,0V0A0,0,0,0,1,0,0Z"/><path class="p" d="M.5.5H374.119a0,0,0,0,1,0,0V52.891a5.5,5.5,0,0,1-5.5,5.5H.5a0,0,0,0,1,0,0V.5A0,0,0,0,1,.5.5Z"/></g><text class="j" transform="translate(160.31 35)"><tspan x="0" y="0">Cancel</tspan></text></g><g transform="translate(-2410 -1069.302)"><path class="k" d="M0,0H374.394a0,0,0,0,1,0,0V58.891a0,0,0,0,1,0,0H6a6,6,0,0,1-6-6V0A0,0,0,0,1,0,0Z"/><text class="l" transform="translate(128.197 35)"><tspan x="0" y="0">Create website</tspan></text></g><line class="i" x2="671" transform="translate(-2365.5 -1490.5)"/><line class="m" x2="183" transform="translate(-2365.5 -1490.5)"/></g></svg>